# xmcd
#
# Track frame offsets:
#	150
#	45470
#	56577
#	66591
#	75668
#	87117
#	101175
#	115699
#	131791
#	148527
#
# Disc length: 2173 seconds
#
# Revision: 0
# Processed by: cddbd v1.5.2PL0 Copyright (c) Steve Scherf et al.
# Submitted via: audiograbber 1.83.01
#
DISCID=8a087b0a
DTITLE=Jimi Hendrix - The Wild One ...
DYEAR=1900
DGENRE=Rock
TTITLE0=Get That Feeling
TTITLE1=You Don`t Want Me
TTITLE2=Gloomy Monday
TTITLE3=Happy  Birthday
TTITLE4=Future Trip
TTITLE5=Strange Things
TTITLE6=Odd Ball
TTITLE7=Welcome Home
TTITLE8=Hornet`s Nest
TTITLE9=How would You Feel
EXTD=
EXTT0=
EXTT1=
EXTT2=
EXTT3=
EXTT4=
EXTT5=
EXTT6=
EXTT7=
EXTT8=
EXTT9=
PLAYORDER=
